<svg width="6" height="11" viewBox="0 0 6 11" fill="none" xmlns="http://www.w3.org/2000/svg">
<path d="M3.98378 5.50211L0.163077 1.76098C0.0578737 1.65821 -4.76837e-07 1.52081 -4.76837e-07 1.37431C-4.76837e-07 1.22772 0.0578737 1.09041 0.163077 0.98748L0.497868 0.659837C0.602905 0.556748 0.743315 0.5 0.892941 0.5C1.04257 0.5 1.18281 0.556748 1.28793 0.659837L5.83709 5.11398C5.94262 5.21724 6.00041 5.3552 6 5.50187C6.00041 5.64919 5.9427 5.78699 5.83709 5.89033L1.29217 10.3402C1.18705 10.4433 1.0468 10.5 0.897093 10.5C0.747467 10.5 0.607224 10.4433 0.50202 10.3402L0.167312 10.0125C-0.0504847 9.79927 -0.0504847 9.45211 0.167312 9.23894L3.98378 5.50211Z" fill="currentcolor"/>
</svg>
