<svg width="17" height="18" viewBox="0 0 17 18" fill="none" xmlns="http://www.w3.org/2000/svg">
<g clip-path="url(#clip0_1_1404)">
<path d="M6.33374 10.2756H6.6418C9.33033 10.4022 11.1227 11.7653 12.635 11.9221C12.7264 11.9281 12.818 11.9281 12.9094 11.9221C14.5562 11.9221 16.0237 10.4384 16.0237 9.96196V1.57867C16.0237 1.44599 15.8948 1.40377 15.6652 1.40377C15.1051 1.40377 13.884 1.71739 12.8254 1.71739C12.7022 1.71739 12.5846 1.71739 12.4614 1.71739C11.0611 1.60883 9.21271 0.0769196 6.92185 0.0769196C5.78881 0.0851668 4.67856 0.420487 3.70682 1.04793C3.6071 0.933666 3.47765 0.854506 3.33544 0.82083C3.19322 0.787154 3.04487 0.800534 2.90984 0.859216C2.7748 0.917898 2.65939 1.01914 2.57872 1.14968C2.49805 1.28022 2.45589 1.43395 2.45777 1.59074V16.355H1.65121C1.45809 16.355 1.27289 16.4376 1.13633 16.5846C0.99978 16.7317 0.923065 16.9311 0.923065 17.139C0.923065 17.347 0.99978 17.5464 1.13633 17.6934C1.27289 17.8405 1.45809 17.9231 1.65121 17.9231H4.65901C4.85212 17.9231 5.03733 17.8405 5.17388 17.6934C5.31044 17.5464 5.38715 17.347 5.38715 17.139C5.38715 16.9311 5.31044 16.7317 5.17388 16.5846C5.03733 16.4376 4.85212 16.355 4.65901 16.355H3.91406V10.5832C4.70864 10.3913 5.5195 10.2882 6.33374 10.2756ZM3.91406 2.85125C4.73702 2.05069 5.81305 1.61916 6.92185 1.64502C7.96855 1.72069 8.9918 2.01355 9.93525 2.50747C10.6991 2.90125 11.5156 3.16377 12.3549 3.28549H12.8254C13.4088 3.27386 13.9908 3.21945 14.5674 3.12265V9.59406C14.1116 10.0639 13.5167 10.3458 12.887 10.3902H12.7526C12.1756 10.2794 11.612 10.0994 11.0723 9.8534C9.66964 9.22384 8.18042 8.8469 6.6642 8.73764H6.29453C5.48183 8.74572 4.67165 8.83659 3.87485 9.00904L3.91406 2.85125Z" fill="currentcolor"/>
</g>
<defs>
<clipPath id="clip0_1_1404">
<rect width="15.1006" height="17.8462" fill="currentcolor" transform="translate(0.923065 0.0769196)"/>
</clipPath>
</defs>
</svg>
