<svg width="12" height="13" viewBox="0 0 12 13" fill="none" xmlns="http://www.w3.org/2000/svg">
<path d="M6.41848 5.94204C6.41848 5.71086 6.23105 5.52344 5.99987 5.52344C5.76869 5.52344 5.58127 5.71086 5.58127 5.94204V9.29088C5.58127 9.52206 5.76869 9.70948 5.99987 9.70948C6.23105 9.70948 6.41848 9.52206 6.41848 9.29088V5.94204Z" fill="currentcolor"/>
<path fill-rule="evenodd" clip-rule="evenodd" d="M6 0.5C2.68629 0.5 0 3.18629 0 6.5C0 9.81373 2.68629 12.5 6 12.5C9.31373 12.5 12 9.81373 12 6.5C12 3.18629 9.31373 0.5 6 0.5ZM0.837209 6.5C0.837209 3.64867 3.14867 1.33721 6 1.33721C8.85131 1.33721 11.1628 3.64867 11.1628 6.5C11.1628 9.35131 8.85131 11.6628 6 11.6628C3.14867 11.6628 0.837209 9.35131 0.837209 6.5Z" fill="currentcolor"/>
<path d="M6.55814 4.26761C6.55814 4.57586 6.30826 4.82575 6 4.82575C5.69174 4.82575 5.44186 4.57586 5.44186 4.26761C5.44186 3.95936 5.69174 3.70947 6 3.70947C6.30826 3.70947 6.55814 3.95936 6.55814 4.26761Z" fill="currentcolor"/>
</svg>
