<svg width="18" height="18" viewBox="0 0 18 18" fill="none" xmlns="http://www.w3.org/2000/svg">
<g clip-path="url(#clip0_1_1398)">
<path d="M15.3086 2.69109C11.8224 -0.795191 6.17907 -0.795748 2.6923 2.69109C-0.794022 6.17738 -0.794545 11.8206 2.6923 15.3074C6.17851 18.7937 11.8218 18.7942 15.3086 15.3074C18.7949 11.8211 18.7954 6.1779 15.3086 2.69109ZM14.9357 14.0357C14.5189 13.663 14.073 13.3331 13.6031 13.0489C13.9137 11.9759 14.0977 10.7951 14.1412 9.56775H16.764C16.6455 11.2222 16.0098 12.7741 14.9357 14.0357ZM1.23679 9.56775H3.85961C3.90311 10.7951 4.08713 11.9759 4.39776 13.0489C3.9278 13.3331 3.48194 13.663 3.06513 14.0357C1.99105 12.7741 1.35542 11.2222 1.23679 9.56775ZM3.06516 3.96278C3.48197 4.3355 3.92783 4.66535 4.39779 4.94961C4.08717 6.02261 3.90314 7.20336 3.85964 8.43074H1.23679C1.35542 6.77638 1.99105 5.22444 3.06516 3.96278ZM8.43195 5.06712C7.50478 5.00081 6.61079 4.77245 5.78201 4.39572C6.26402 3.15451 7.1526 1.66581 8.43195 1.29689V5.06712ZM8.43195 6.20625V8.43078H4.9971C5.03646 7.39251 5.18357 6.3955 5.42823 5.48327C6.37007 5.895 7.38298 6.14088 8.43195 6.20625ZM8.43195 9.56775V11.7923C7.38298 11.8576 6.37007 12.1035 5.42823 12.5153C5.18357 11.603 5.03646 10.606 4.9971 9.56775H8.43195ZM8.43195 12.9314V16.7016C7.15267 16.3327 6.26409 14.8442 5.78201 13.6028C6.61079 13.2261 7.50478 12.9977 8.43195 12.9314ZM9.56892 12.9314C10.4961 12.9977 11.3901 13.2261 12.2189 13.6028C11.7368 14.8441 10.8483 16.3327 9.56892 16.7016V12.9314ZM9.56892 11.7923V9.56775H13.0038C12.9644 10.606 12.8173 11.603 12.5726 12.5153C11.6308 12.1035 10.6179 11.8576 9.56892 11.7923ZM9.56892 8.43078V6.20625C10.6179 6.14088 11.6308 5.895 12.5726 5.48327C12.8173 6.3955 12.9644 7.39251 13.0038 8.43078H9.56892ZM9.56892 5.06712V1.29692C10.8483 1.66585 11.7369 3.15454 12.2189 4.39575C11.3901 4.77245 10.4961 5.00081 9.56892 5.06712ZM12.1225 1.8645C12.8502 2.18317 13.5291 2.61528 14.1377 3.15141C13.848 3.40683 13.5423 3.63843 13.2231 3.84555C12.9397 3.14371 12.5776 2.46165 12.1225 1.8645ZM4.77769 3.84555C4.4585 3.63843 4.15285 3.40683 3.86312 3.15141C4.47173 2.61528 5.15066 2.18317 5.87837 1.8645C5.42325 2.46172 5.06115 3.14378 4.77769 3.84555ZM4.77773 14.153C5.06115 14.8548 5.42332 15.5369 5.87841 16.134C5.15069 15.8154 4.47177 15.3833 3.86316 14.8471C4.15285 14.5917 4.45853 14.3601 4.77773 14.153ZM13.2231 14.153C13.5423 14.3601 13.848 14.5917 14.1377 14.8471C13.5291 15.3832 12.8502 15.8153 12.1225 16.134C12.5775 15.5369 12.9397 14.8548 13.2231 14.153ZM14.1413 8.43078C14.0978 7.20339 13.9137 6.02261 13.6031 4.94965C14.0731 4.66539 14.5189 4.33554 14.9357 3.96282C16.0098 5.22444 16.6455 6.77638 16.7641 8.43078H14.1413Z" fill="currentcolor"/>
</g>
<defs>
<clipPath id="clip0_1_1398">
<rect width="17.8462" height="17.8462" fill="currentcolor" transform="translate(0.0769653 0.0771484)"/>
</clipPath>
</defs>
</svg>
