<svg width="96" height="40" viewBox="0 0 96 40" fill="none" xmlns="http://www.w3.org/2000/svg">
<g clip-path="url(#clip0_1_1360)">
<path d="M85.9524 39.2308H58.2495C53.5362 39.2308 49.6787 35.3865 49.6787 30.6896C49.6787 25.9927 53.5362 22.1484 58.2495 22.1484H85.9524C90.6656 22.1484 94.5232 25.9927 94.5232 30.6896C94.5232 35.3865 90.6656 39.2308 85.9524 39.2308Z" fill="#FF3900"/>
<path d="M8.92422 0C11.3946 0 13.5723 0.902137 15.1598 2.41243V7.06675C14.4009 4.33788 11.9801 2.43489 8.92422 2.43489C5.23112 2.43489 2.44333 5.21312 2.44333 8.89348C2.44333 12.5738 5.23112 15.352 8.92422 15.352C11.7368 15.352 14.0113 13.743 14.9414 11.3553H6.47871V8.91812H15.162V15.3767C13.5721 16.887 11.3946 17.7892 8.92652 17.7892C3.83951 17.7892 9.90061e-07 13.9629 9.90061e-07 8.89348C-0.0022509 3.82626 3.8372 0 8.92422 0Z" fill="white"/>
<path d="M17.3613 0.366211H30.5687V2.80329H19.8069V7.67753H30.5687V10.1147H19.8069V14.9889H30.5687V17.4259H17.3613V0.366211Z" fill="white"/>
<path d="M32.7696 0.366211H37.9062L45.5852 17.4259V0.366211H48.031V17.4259H42.8941L35.2151 0.366211V17.4259H32.7696V0.366211Z" fill="white"/>
<path d="M49.7423 14.9889H55.9777V2.80329H49.7423V0.366211H64.6611V2.80329H58.4257V14.9889H64.6611V17.4259H49.7423V14.9889Z" fill="white"/>
<path d="M65.8828 9.43244V0.366211H68.3285V9.48183C68.3285 12.9422 70.9205 15.478 74.395 15.478C77.8177 15.478 80.5584 12.9445 80.5584 9.48183V0.366211H83.004V9.43244C83.004 14.2349 79.1894 17.9152 74.395 17.9152C69.6005 17.9152 65.8828 14.2101 65.8828 9.43244Z" fill="white"/>
<path d="M84.1066 16.232V11.7706C84.3521 13.8666 86.478 15.2557 88.4843 15.2557C89.928 15.2557 91.4432 14.4523 91.4432 12.8433C91.4432 9.40755 84.1066 10.3569 84.1066 5.02031C84.1066 1.92567 86.5273 0.0966797 89.4863 0.0966797C90.8556 0.0966797 92.2024 0.511852 93.3013 1.33993V5.82366C93.0807 3.84886 91.4658 2.53382 89.5112 2.53382C88.0679 2.53382 86.5523 3.21602 86.5523 4.87441C86.5523 8.45831 93.8889 7.77384 93.8889 12.9173C93.8889 15.9874 91.3938 17.6952 88.5092 17.6952C86.9418 17.6952 85.3541 17.2059 84.1066 16.232Z" fill="white"/>
<path d="M59.7392 32.351C59.7392 32.0456 59.6229 31.8093 59.3898 31.6424C59.1609 31.4713 58.7584 31.3247 58.182 31.2025C57.6101 31.0803 57.1541 30.9337 56.8153 30.7626C56.4798 30.5916 56.2306 30.3879 56.0672 30.1517C55.908 29.9155 55.8281 29.6345 55.8281 29.3086C55.8281 28.767 56.057 28.3088 56.5149 27.9342C56.9764 27.5594 57.5649 27.3721 58.2803 27.3721C59.0321 27.3721 59.6413 27.5655 60.107 27.9525C60.5769 28.3393 60.8118 28.8342 60.8118 29.437H59.6718C59.6718 29.1275 59.5389 28.8606 59.2735 28.6367C59.0118 28.4127 58.6809 28.3006 58.2803 28.3006C57.8677 28.3006 57.5446 28.3903 57.3115 28.5694C57.0789 28.7487 56.9621 28.9828 56.9621 29.272C56.9621 29.5449 57.0706 29.7506 57.287 29.8891C57.5035 30.0275 57.894 30.1599 58.458 30.2861C59.0261 30.4124 59.4858 30.5631 59.8375 30.7382C60.1887 30.9133 60.4486 31.1251 60.6157 31.3736C60.7873 31.6179 60.8732 31.9173 60.8732 32.2716C60.8732 32.8621 60.6364 33.3366 60.162 33.6951C59.688 34.0493 59.0732 34.2265 58.3172 34.2265C57.786 34.2265 57.3157 34.1328 56.9072 33.9455C56.4983 33.7581 56.1775 33.4975 55.9444 33.1635C55.716 32.8255 55.6015 32.4609 55.6015 32.07H56.7355C56.7558 32.4487 56.9072 32.7501 57.1892 32.9742C57.4749 33.194 57.851 33.304 58.3172 33.304C58.746 33.304 59.0893 33.2185 59.3469 33.0474C59.6086 32.8723 59.7392 32.6402 59.7392 32.351ZM67.9537 30.8726C67.9537 31.8786 67.7229 32.689 67.2609 33.304C66.7993 33.9189 66.174 34.2265 65.3852 34.2265C64.5803 34.2265 63.9466 33.972 63.485 33.4629V36.6457H62.3506V27.4943H63.3867L63.4421 28.2274C63.9037 27.6571 64.5452 27.3721 65.3667 27.3721C66.1638 27.3721 66.7933 27.6715 67.2549 28.2701C67.721 28.8687 67.9537 29.7017 67.9537 30.7687V30.8726ZM66.8197 30.7443C66.8197 29.999 66.6604 29.4105 66.3415 28.9788C66.0226 28.5471 65.5855 28.3312 65.0298 28.3312C64.343 28.3312 63.828 28.6347 63.485 29.2415V32.3998C63.8243 33.0027 64.343 33.304 65.0418 33.304C65.5855 33.304 66.0166 33.0902 66.3355 32.6625C66.6581 32.2308 66.8197 31.5915 66.8197 30.7443ZM73.4953 34.1043C73.4303 33.974 73.3772 33.7419 73.3361 33.4078C72.809 33.9537 72.1795 34.2265 71.448 34.2265C70.794 34.2265 70.2567 34.0432 69.8358 33.6766C69.419 33.3061 69.2104 32.8377 69.2104 32.2716C69.2104 31.5833 69.4721 31.0498 69.995 30.671C70.5221 30.2881 71.262 30.0968 72.2141 30.0968H73.3177V29.5774C73.3177 29.1825 73.199 28.8687 72.9623 28.6367C72.725 28.4005 72.3757 28.2823 71.9141 28.2823C71.5093 28.2823 71.1701 28.3841 70.8964 28.5878C70.6227 28.7914 70.4857 29.0378 70.4857 29.327H69.3452C69.3452 28.9971 69.462 28.6795 69.6946 28.3739C69.9318 28.0644 70.2507 27.8201 70.6509 27.6408C71.0557 27.4617 71.4992 27.3721 71.9815 27.3721C72.7458 27.3721 73.3444 27.5635 73.7773 27.9464C74.2107 28.3251 74.4355 28.8484 74.4521 29.5164V32.5587C74.4521 33.1655 74.5297 33.6481 74.6847 34.0066V34.1043H73.4953ZM71.6137 33.243C71.969 33.243 72.3064 33.1513 72.6249 32.968C72.9438 32.7848 73.1746 32.5465 73.3177 32.2533V30.897H72.4287C71.0395 30.897 70.3444 31.3023 70.3444 32.1128C70.3444 32.467 70.463 32.7441 70.7003 32.9435C70.937 33.1431 71.2417 33.243 71.6137 33.243ZM78.8903 33.304C79.2946 33.304 79.6481 33.1818 79.9504 32.9374C80.2532 32.6931 80.4207 32.3877 80.4535 32.0211H81.5261C81.5058 32.3998 81.3747 32.7603 81.1338 33.1024C80.8929 33.4446 80.5698 33.7174 80.165 33.921C79.7649 34.1246 79.3398 34.2265 78.8903 34.2265C77.987 34.2265 77.2675 33.9272 76.7321 33.3285C76.2009 32.7257 75.9355 31.903 75.9355 30.8604V30.671C75.9355 30.0275 76.0537 29.4553 76.2909 28.9544C76.5281 28.4534 76.8673 28.0644 77.3086 27.7875C77.754 27.5106 78.2792 27.3721 78.8838 27.3721C79.6278 27.3721 80.2449 27.594 80.7355 28.038C81.2298 28.4819 81.4933 29.0582 81.5261 29.7668H80.4535C80.4207 29.3391 80.2573 28.989 79.9629 28.7161C79.6726 28.4392 79.313 28.3006 78.8838 28.3006C78.3078 28.3006 77.8601 28.5084 77.5417 28.9238C77.2269 29.3351 77.0695 29.9318 77.0695 30.7137V30.9276C77.0695 31.6892 77.2269 32.2757 77.5417 32.687C77.8564 33.0983 78.306 33.304 78.8903 33.304ZM85.554 34.2265C84.6544 34.2265 83.9229 33.9333 83.3589 33.3468C82.7949 32.7563 82.5133 31.9681 82.5133 30.9825V30.7748C82.5133 30.1192 82.638 29.5347 82.8872 29.0215C83.1406 28.5043 83.4918 28.1011 83.9413 27.8119C84.395 27.5187 84.8857 27.3721 85.4127 27.3721C86.2749 27.3721 86.9455 27.6551 87.4237 28.2213C87.9018 28.7873 88.1409 29.5979 88.1409 30.6527V31.1231H83.6473C83.6635 31.7747 83.8536 32.3021 84.2173 32.7053C84.5852 33.1044 85.0509 33.304 85.6149 33.304C86.0155 33.304 86.3547 33.2226 86.6326 33.0597C86.9104 32.8967 87.1537 32.6809 87.3623 32.4121L88.055 32.9496C87.4989 33.8009 86.6653 34.2265 85.554 34.2265ZM85.4127 28.3006C84.9549 28.3006 84.5709 28.4677 84.2603 28.8016C83.9497 29.1315 83.7577 29.5959 83.6838 30.1945H87.0064V30.109C86.9737 29.5347 86.8186 29.0907 86.5407 28.7772C86.2629 28.4595 85.8867 28.3006 85.4127 28.3006Z" fill="white"/>
<path d="M52.651 28.9171C52.5777 28.9182 52.5043 28.9232 52.4309 28.9228C52.2047 28.9213 51.9795 28.9134 51.7543 28.8991C51.5295 28.8848 51.3047 28.8641 51.0809 28.838C50.857 28.812 50.6341 28.7806 50.4117 28.744C50.1892 28.7073 49.9672 28.6658 49.7461 28.6197C49.525 28.5736 49.3049 28.5232 49.0852 28.4689C48.8655 28.4146 48.6467 28.3565 48.4294 28.2951C48.2115 28.2337 47.9941 28.1692 47.7781 28.1019C47.5626 28.0346 47.348 27.9648 47.1338 27.8929C46.7064 27.749 46.2795 27.5958 45.8534 27.439C45.4271 27.2822 45.0011 27.1214 44.5749 26.9607C44.1488 26.8 43.7224 26.6394 43.2951 26.4838C42.8678 26.3282 42.4398 26.1771 42.0101 26.0357C41.7952 25.9649 41.58 25.8965 41.3643 25.831C41.1486 25.7654 40.9324 25.7034 40.7157 25.6442C40.499 25.5851 40.2819 25.5293 40.0641 25.4776C39.8462 25.4259 39.6272 25.3778 39.4081 25.3347C39.1889 25.2916 38.9691 25.2531 38.7484 25.2197C38.5278 25.1864 38.3067 25.1582 38.0844 25.1357C37.8622 25.1132 37.6393 25.0967 37.4153 25.0862C37.1913 25.0757 36.9663 25.0714 36.7403 25.074C36.5077 25.0765 36.2754 25.0872 36.0435 25.1049C35.8116 25.1225 35.5798 25.1472 35.3495 25.1795C35.1193 25.2119 34.8899 25.2514 34.6622 25.2981C34.4344 25.3448 34.2085 25.3988 33.9843 25.4597C33.76 25.5205 33.5379 25.5881 33.3181 25.6629C33.2701 25.6792 33.2236 25.6998 33.1758 25.7168C34.0637 28.5387 36.4516 31.4608 40.72 35.0454C42.2526 36.3325 43.5912 37.3853 43.695 37.3853C44.2002 37.3853 48.1243 34.0918 50.1167 31.9952C51.1173 30.9429 51.961 29.9141 52.651 28.917V28.9171Z" fill="#FECB00"/>
<path d="M38.0104 17.5393C37.0049 17.5479 36.0237 17.7701 35.2865 18.2259C33.3823 19.4032 32.7407 20.678 32.7705 23.2245C32.7803 24.0561 32.9129 24.8821 33.1755 25.7167C33.2232 25.6997 33.2698 25.6792 33.3178 25.6628C33.5376 25.588 33.7597 25.5204 33.984 25.4596C34.2083 25.3987 34.4342 25.3447 34.6619 25.298C34.8896 25.2513 35.119 25.2118 35.3492 25.1794C35.5795 25.1472 35.8113 25.1224 36.0432 25.1048C36.2751 25.0871 36.5074 25.0766 36.74 25.0739C36.966 25.0713 37.191 25.0757 37.415 25.0861C37.639 25.0966 37.8619 25.1131 38.0841 25.1356C38.3063 25.1581 38.5275 25.1863 38.7481 25.2196C38.9687 25.253 39.1886 25.2915 39.4078 25.3346C39.6269 25.3777 39.8459 25.4258 40.0637 25.4775C40.2816 25.5292 40.4987 25.585 40.7153 25.6441C40.932 25.7033 41.1484 25.7653 41.364 25.8309C41.5798 25.8964 41.795 25.9648 42.0098 26.0356C42.4396 26.177 42.8675 26.3281 43.2948 26.4837C43.7221 26.6393 44.1485 26.7999 44.5747 26.9606C45.0009 27.1213 45.4268 27.2821 45.8531 27.4389C46.2792 27.5957 46.7062 27.7489 47.1335 27.8928C47.3477 27.9647 47.5623 28.0345 47.7779 28.1018C47.9939 28.1691 48.2112 28.2336 48.4291 28.295C48.6465 28.3564 48.8652 28.4145 49.0849 28.4688C49.3042 28.5231 49.5248 28.5735 49.7459 28.6196C49.9669 28.6657 50.1889 28.7072 50.4114 28.7439C50.6339 28.7805 50.8568 28.8119 51.0806 28.8379C51.3045 28.864 51.5292 28.8847 51.754 28.899C51.9792 28.9132 52.2045 28.9214 52.4306 28.9227C52.504 28.9231 52.5774 28.9181 52.6508 28.917C55.4897 24.8164 55.6937 21.2562 53.122 18.8314C52.2479 18.0069 51.5615 17.7386 49.9997 17.6111C47.5591 17.4119 45.9828 18.1121 44.7892 19.9259C43.8387 21.3703 43.5338 21.4888 43.2262 20.5349C43.1073 20.166 42.5077 19.3908 41.8938 18.812C41.0022 17.9712 39.48 17.5268 38.0104 17.5393V17.5393Z" fill="#0068C2"/>
<path opacity="0.217903" d="M46.4364 34.5634C51.2336 29.5442 53.0465 26.4305 53.0525 23.1994C53.0567 20.6338 52.2582 19.1973 50.3225 18.2918L48.7598 17.5605L50.389 17.7396C53.3853 18.0689 55.285 20.9714 54.7238 24.3622C54.3005 26.9192 52.6644 29.4054 49.0888 32.9264C44.9471 37.0046 42.8895 38.2745 46.4364 34.5634ZM41.7411 20.8898C40.9609 19.4978 40.3062 18.857 39.126 18.3296C37.5945 17.6453 37.5821 17.6259 38.6724 17.6194C40.7623 17.6069 43.9243 20.3979 43.6265 21.9921C43.4236 23.0786 42.7461 22.6825 41.7411 20.8898Z" fill="white"/>
<path opacity="0.367623" d="M36.8294 19.2315C36.3712 19.2287 35.8815 19.5146 35.2869 20.0998C33.6267 21.573 34.6241 27.4281 35.3651 23.7068C35.5021 23.0932 36.4109 22.2395 36.9995 21.8112C38.3612 20.8203 38.5941 20.4656 37.8766 19.7594C37.5231 19.4114 37.1858 19.234 36.8294 19.2315ZM47.9353 19.3127C47.2855 19.3085 46.5987 19.7921 46.1344 20.6758C45.4031 22.0679 45.8152 22.1387 46.8863 22.1387C47.3884 22.1387 47.8763 21.7353 48.4527 21.2424C49.4252 20.4108 49.457 20.3026 48.8889 19.7342C48.606 19.4512 48.2755 19.3149 47.9353 19.3127Z" fill="white"/>
</g>
<defs>
<clipPath id="clip0_1_1360">
<rect width="96" height="39.6923" fill="white"/>
</clipPath>
</defs>
</svg>
