<?xml version="1.0" encoding="utf-8"?><svg viewBox="0 0 600 1200" xmlns="http://www.w3.org/2000/svg" xmlns:xlink="http://www.w3.org/1999/xlink"><style>:root>svg{display:none}:root>svg:target{display:block}</style><svg fill="none" viewBox="0 0 20 20" id="arrow" xmlns="http://www.w3.org/2000/svg"><path d="M18 2 2 18m0 0h16M2 18V2" stroke="currentcolor" stroke-width="3"/></svg><svg fill="none" viewBox="0 0 6 11" id="arrowList" xmlns="http://www.w3.org/2000/svg"><path d="M3.984 5.502.164 1.761a.537.537 0 0 1 0-.774L.497.66A.56.56 0 0 1 .893.5c.15 0 .29.057.395.16l4.55 4.454A.537.537 0 0 1 6 5.502a.537.537 0 0 1-.163.388l-4.545 4.45a.56.56 0 0 1-.395.16.56.56 0 0 1-.395-.16l-.335-.328a.54.54 0 0 1 0-.773l3.817-3.737Z" fill="currentcolor"/></svg><svg fill="none" viewBox="0 0 18 18" id="calendar" xmlns="http://www.w3.org/2000/svg"><g clip-path="url(#ca)"><path d="M14.538 2.308h-.693V.821h-1.384v1.487H5.538V.821H4.153v1.487h-.692c-.762 0-1.385.67-1.385 1.488v11.897c0 .818.623 1.487 1.385 1.487h11.077c.761 0 1.384-.669 1.384-1.487V3.796c0-.818-.623-1.488-1.384-1.488Zm0 13.385H3.46V6.026h11.077v9.667Z" fill="currentcolor"/></g><defs><clipPath id="ca"><path fill="currentcolor" transform="translate(.692 .077)" d="M0 0h16.615v17.846H0z"/></clipPath></defs></svg><svg fill="none" viewBox="0 0 28 28" id="checkMark" xmlns="http://www.w3.org/2000/svg"><path d="M14 0C6.28 0 0 6.28 0 14s6.28 14 14 14 14-6.28 14-14S21.72 0 14 0Zm7.096 11.033-7.584 7.583a1.164 1.164 0 0 1-1.65 0l-3.79-3.791a1.165 1.165 0 0 1 0-1.65 1.165 1.165 0 0 1 1.649 0l2.966 2.967 6.76-6.758a1.165 1.165 0 1 1 1.65 1.65Z" fill="currentcolor"/></svg><svg fill="none" viewBox="0 0 600 1200" id="descor" xmlns="http://www.w3.org/2000/svg"><g opacity=".1" stroke="#fff"><circle cy="600" r="473.5"/><circle cy="600" r="599.5"/><circle cy="600" r="365.5"/><circle cy="600" r="261.5"/></g></svg><svg fill="none" viewBox="0 0 24 24" id="facebook" xmlns="http://www.w3.org/2000/svg"><path d="M13.5 8.25v-3a1.5 1.5 0 0 1 1.5-1.5h1.5V0h-3A4.5 4.5 0 0 0 9 4.5v3.75H6V12h3v12h4.5V12h3L18 8.25h-4.5Z" fill="currentcolor"/></svg><svg fill="none" viewBox="0 0 17 18" id="flag" xmlns="http://www.w3.org/2000/svg"><g clip-path="url(#ga)"><path d="M6.334 10.276h.308c2.688.126 4.48 1.49 5.993 1.646.091.006.183.006.274 0 1.647 0 3.115-1.484 3.115-1.96V1.579c0-.133-.13-.175-.359-.175-.56 0-1.781.313-2.84.313h-.364c-1.4-.108-3.248-1.64-5.54-1.64a6 6 0 0 0-3.214.97.712.712 0 0 0-.372-.226.674.674 0 0 0-.425.038.736.736 0 0 0-.331.29.822.822 0 0 0-.121.442v14.764H1.65a.703.703 0 0 0-.515.23.816.816 0 0 0-.213.554c0 .208.077.407.213.554.137.147.322.23.515.23h3.01a.703.703 0 0 0 .515-.23.815.815 0 0 0 .213-.554.816.816 0 0 0-.213-.554.703.703 0 0 0-.515-.23h-.745v-5.772a11.03 11.03 0 0 1 2.42-.307ZM3.914 2.85c.823-.8 1.899-1.232 3.008-1.206a7.687 7.687 0 0 1 3.013.862 7.66 7.66 0 0 0 2.42.778h.47a11.96 11.96 0 0 0 1.742-.162v6.471a2.59 2.59 0 0 1-1.68.796h-.134a7.427 7.427 0 0 1-1.68-.537 13.048 13.048 0 0 0-4.409-1.115h-.37a12 12 0 0 0-2.42.271l.04-6.158Z" fill="currentcolor"/></g><defs><clipPath id="ga"><path fill="currentcolor" transform="translate(.923 .077)" d="M0 0h15.101v17.846H0z"/></clipPath></defs></svg><svg fill="none" viewBox="0 0 12 13" id="help" xmlns="http://www.w3.org/2000/svg"><path d="M6.418 5.942a.419.419 0 0 0-.837 0v3.349a.419.419 0 0 0 .837 0V5.942Z" fill="currentcolor"/><path fill-rule="evenodd" clip-rule="evenodd" d="M6 .5a6 6 0 1 0 0 12 6 6 0 0 0 0-12Zm-5.163 6a5.163 5.163 0 1 1 10.326 0 5.163 5.163 0 0 1-10.326 0Z" fill="currentcolor"/><path d="M6.558 4.268a.558.558 0 1 1-1.116 0 .558.558 0 0 1 1.116 0Z" fill="currentcolor"/></svg><svg fill="none" viewBox="0 0 24 24" id="instagram" xmlns="http://www.w3.org/2000/svg"><g clip-path="url(#ia)" fill="currentcolor"><path d="M23.977 7.056c-.057-1.275-.263-2.152-.558-2.912a5.855 5.855 0 0 0-1.388-2.128A5.907 5.907 0 0 0 19.907.633C19.143.338 18.27.13 16.995.075 15.711.015 15.303 0 12.046 0 8.785 0 8.377.014 7.097.07c-1.274.057-2.151.263-2.91.558a5.856 5.856 0 0 0-2.129 1.388A5.909 5.909 0 0 0 .675 4.14C.38 4.904.173 5.776.117 7.05.057 8.336.042 8.744.042 12.002c0 3.259.014 3.667.07 4.947.057 1.275.263 2.151.559 2.911a5.919 5.919 0 0 0 1.387 2.129 5.9 5.9 0 0 0 2.124 1.383c.764.295 1.636.501 2.912.558 1.28.056 1.687.07 4.946.07 3.258 0 3.666-.014 4.946-.07 1.275-.057 2.152-.263 2.912-.558a6.139 6.139 0 0 0 3.511-3.512c.296-.764.502-1.636.558-2.911.056-1.28.07-1.688.07-4.947 0-3.258-.004-3.666-.06-4.946Zm-2.162 9.799c-.051 1.172-.248 1.805-.412 2.227a3.981 3.981 0 0 1-2.279 2.278c-.422.165-1.06.361-2.227.413-1.266.056-1.645.07-4.848.07-3.202 0-3.586-.014-4.848-.07-1.172-.052-1.805-.248-2.227-.413a3.693 3.693 0 0 1-1.378-.895 3.73 3.73 0 0 1-.896-1.378c-.164-.422-.36-1.06-.412-2.227-.056-1.266-.07-1.646-.07-4.848 0-3.203.014-3.587.07-4.848.051-1.172.248-1.805.412-2.227.193-.52.497-.994.9-1.379a3.726 3.726 0 0 1 1.38-.895c.421-.164 1.059-.36 2.226-.413 1.266-.056 1.646-.07 4.848-.07 3.207 0 3.586.014 4.848.07 1.172.052 1.805.249 2.227.413.52.192.994.497 1.378.895.399.39.703.858.896 1.379.164.422.36 1.06.412 2.227.056 1.266.07 1.645.07 4.848 0 3.202-.014 3.577-.07 4.843Z"/><path d="M12.044 5.838a6.167 6.167 0 0 0-6.165 6.165 6.167 6.167 0 0 0 6.165 6.165 6.167 6.167 0 0 0 6.166-6.165 6.167 6.167 0 0 0-6.166-6.165Zm0 10.164a4 4 0 1 1 .002-8 4 4 0 0 1-.002 8Zm7.849-10.408a1.44 1.44 0 1 1-2.879 0 1.44 1.44 0 0 1 2.879 0Z"/></g><defs><clipPath id="ia"><path fill="currentcolor" d="M0 0h24v24H0z"/></clipPath></defs></svg><svg fill="none" viewBox="0 0 24 24" id="telegram" xmlns="http://www.w3.org/2000/svg"><g clip-path="url(#ja)"><path d="m9.417 15.181-.397 5.584c.568 0 .814-.244 1.109-.537l2.663-2.545 5.518 4.041c1.012.564 1.725.267 1.998-.93L23.93 3.82c.322-1.497-.54-2.082-1.526-1.715l-21.29 8.151c-1.453.564-1.431 1.374-.247 1.741L6.31 13.69l12.643-7.91c.595-.395 1.136-.177.69.217L9.418 15.181Z" fill="currentcolor"/></g><defs><clipPath id="ja"><path fill="currentcolor" d="M0 0h24v24H0z"/></clipPath></defs></svg><svg fill="none" viewBox="0 0 24 24" stroke-width="1.5" stroke="currentColor" id="test" xmlns="http://www.w3.org/2000/svg"><path stroke-linecap="round" stroke-linejoin="round" d="M4.26 10.147a60.438 60.438 0 0 0-.491 6.347A48.62 48.62 0 0 1 12 20.904a48.62 48.62 0 0 1 8.232-4.41 60.46 60.46 0 0 0-.491-6.347m-15.482 0a50.636 50.636 0 0 0-2.658-.813A59.906 59.906 0 0 1 12 3.493a59.903 59.903 0 0 1 10.399 5.84 51.39 51.39 0 0 0-2.658.814m-15.482 0A50.717 50.717 0 0 1 12 13.489a50.702 50.702 0 0 1 7.74-3.342M6.75 15a.75.75 0 1 0 0-1.5.75.75 0 0 0 0 1.5Zm0 0v-3.675A55.378 55.378 0 0 1 12 8.443m-7.007 11.55A5.981 5.981 0 0 0 6.75 15.75v-1.5"/></svg><svg fill="none" viewBox="0 0 32 32" id="video" xmlns="http://www.w3.org/2000/svg"><path d="M16 4c6.627 0 12 5.373 12 12s-5.373 12-12 12S4 22.627 4 16 9.373 4 16 4Zm-2.5 16.33L21 16l-7.5-4.33v8.66Z" fill="currentcolor"/></svg><svg fill="none" viewBox="0 0 18 18" id="world" xmlns="http://www.w3.org/2000/svg"><g clip-path="url(#ma)"><path d="M15.309 2.691a8.916 8.916 0 0 0-12.617 0 8.916 8.916 0 0 0 0 12.616 8.916 8.916 0 0 0 12.617 0 8.916 8.916 0 0 0 0-12.616Zm-.373 11.345a8.941 8.941 0 0 0-1.333-.987 14.43 14.43 0 0 0 .538-3.481h2.623a7.713 7.713 0 0 1-1.828 4.468Zm-13.7-4.468H3.86c.043 1.227.227 2.408.538 3.48a8.94 8.94 0 0 0-1.333.988 7.714 7.714 0 0 1-1.828-4.468Zm1.83-5.605c.416.372.862.702 1.332.987a14.428 14.428 0 0 0-.538 3.48H1.237a7.714 7.714 0 0 1 1.828-4.467Zm5.366 1.104a7.724 7.724 0 0 1-2.65-.671c.482-1.241 1.37-2.73 2.65-3.1v3.771Zm0 1.14V8.43H4.997c.04-1.038.187-2.035.431-2.948a8.861 8.861 0 0 0 3.004.723Zm0 3.36v2.225a8.858 8.858 0 0 0-3.004.723 13.396 13.396 0 0 1-.43-2.947h3.434Zm0 3.364v3.77c-1.28-.368-2.168-1.857-2.65-3.098a7.724 7.724 0 0 1 2.65-.672Zm1.137 0a7.724 7.724 0 0 1 2.65.672c-.482 1.241-1.37 2.73-2.65 3.099v-3.77Zm0-1.139V9.568h3.435a13.396 13.396 0 0 1-.431 2.947 8.858 8.858 0 0 0-3.004-.723Zm0-3.361V6.206a8.86 8.86 0 0 0 3.004-.723c.244.913.391 1.91.43 2.948H9.57Zm0-3.364v-3.77c1.28.369 2.168 1.858 2.65 3.099a7.724 7.724 0 0 1-2.65.671Zm2.553-3.203a7.75 7.75 0 0 1 2.016 1.287c-.29.256-.596.487-.915.695a8.558 8.558 0 0 0-1.1-1.982ZM4.779 3.846a7.818 7.818 0 0 1-.915-.695 7.75 7.75 0 0 1 2.015-1.286 8.562 8.562 0 0 0-1.1 1.98Zm0 10.307a8.558 8.558 0 0 0 1.1 1.981 7.746 7.746 0 0 1-2.015-1.287c.29-.255.596-.487.915-.694Zm8.445 0c.32.207.625.439.915.694a7.751 7.751 0 0 1-2.015 1.287 8.56 8.56 0 0 0 1.1-1.981Zm.918-5.722a14.429 14.429 0 0 0-.538-3.481 8.94 8.94 0 0 0 1.333-.987 7.714 7.714 0 0 1 1.828 4.468h-2.623Z" fill="currentcolor"/></g><defs><clipPath id="ma"><path fill="currentcolor" transform="translate(.077 .077)" d="M0 0h17.846v17.846H0z"/></clipPath></defs></svg><svg fill="none" viewBox="0 0 24 24" id="youtube" xmlns="http://www.w3.org/2000/svg"><path d="M22.775 6.375a2.819 2.819 0 0 0-1.983-1.983c-1.761-.482-8.804-.482-8.804-.482s-7.043 0-8.803.464a2.876 2.876 0 0 0-1.983 2.001c-.464 1.76-.464 5.412-.464 5.412s0 3.67.464 5.412a2.82 2.82 0 0 0 1.983 1.983c1.779.482 8.803.482 8.803.482s7.043 0 8.804-.464a2.819 2.819 0 0 0 1.983-1.983c.463-1.76.463-5.411.463-5.411s.019-3.67-.463-5.43ZM9.745 15.16V8.414l5.857 3.373-5.856 3.373Z" fill="currentcolor"/></svg><svg fill="none" viewBox="0 0 32 32" id="zoom" xmlns="http://www.w3.org/2000/svg"><rect x="1" y="8.827" width="19.615" height="13.846" rx="2" fill="currentcolor"/><path d="M22.295 16.448a1 1 0 0 1 0-1.395l5.392-5.535c.627-.642 1.717-.2 1.717.698v11.07c0 .897-1.09 1.34-1.717.697l-5.392-5.535Z" fill="currentcolor"/></svg></svg>